<svg xmlns="http://www.w3.org/2000/svg" xml:space="preserve" xmlns:xlink="http://www.w3.org/1999/xlink" style="max-width: 100%;height: auto;" width="980" height="980" viewBox="0 0 980 980">
<defs><mask id="qrmask"><g fill="#ffffff"><g>
<g transform="translate(200,40) scale(3.4333333333333)"><rect width="6" height="6"/></g>
<g transform="translate(240,40) scale(3.4333333333333)"><rect width="6" height="6"/></g>
<g transform="translate(380,40) scale(3.4333333333333)"><rect width="6" height="6"/></g>
<g transform="translate(400,40) scale(3.4333333333333)"><rect width="6" height="6"/></g>
<g transform="translate(420,40) scale(3.4333333333333)"><rect width="6" height="6"/></g>
<g transform="translate(440,40) scale(3.4333333333333)"><rect width="6" height="6"/></g>
<g transform="translate(460,40) scale(3.4333333333333)"><rect width="6" height="6"/></g>
<g transform="translate(480,40) scale(3.4333333333333)"><rect width="6" height="6"/></g>
<g transform="translate(520,40) scale(3.4333333333333)"><rect width="6" height="6"/></g>
<g transform="translate(560,40) scale(3.4333333333333)"><rect width="6" height="6"/></g>
<g transform="translate(580,40) scale(3.4333333333333)"><rect width="6" height="6"/></g>
<g transform="translate(620,40) scale(3.4333333333333)"><rect width="6" height="6"/></g>
<g transform="translate(640,40) scale(3.4333333333333)"><rect width="6" height="6"/></g>
<g transform="translate(700,40) scale(3.4333333333333)"><rect width="6" height="6"/></g>
<g transform="translate(760,40) scale(3.4333333333333)"><rect width="6" height="6"/></g>
<g transform="translate(200,60) scale(3.4333333333333)"><rect width="6" height="6"/></g>
<g transform="translate(220,60) scale(3.4333333333333)"><rect width="6" height="6"/></g>
<g transform="translate(240,60) scale(3.4333333333333)"><rect width="6" height="6"/></g>
<g transform="translate(260,60) scale(3.4333333333333)"><rect width="6" height="6"/></g>
<g transform="translate(280,60) scale(3.4333333333333)"><rect width="6" height="6"/></g>
<g transform="translate(300,60) scale(3.4333333333333)"><rect width="6" height="6"/></g>
<g transform="translate(320,60) scale(3.4333333333333)"><rect width="6" height="6"/></g>
<g transform="translate(340,60) scale(3.4333333333333)"><rect width="6" height="6"/></g>
<g transform="translate(380,60) scale(3.4333333333333)"><rect width="6" height="6"/></g>
<g transform="translate(400,60) scale(3.4333333333333)"><rect width="6" height="6"/></g>
<g transform="translate(440,60) scale(3.4333333333333)"><rect width="6" height="6"/></g>
<g transform="translate(480,60) scale(3.4333333333333)"><rect width="6" height="6"/></g>
<g transform="translate(660,60) scale(3.4333333333333)"><rect width="6" height="6"/></g>
<g transform="translate(700,60) scale(3.4333333333333)"><rect width="6" height="6"/></g>
<g transform="translate(740,60) scale(3.4333333333333)"><rect width="6" height="6"/></g>
<g transform="translate(200,80) scale(3.4333333333333)"><rect width="6" height="6"/></g>
<g transform="translate(340,80) scale(3.4333333333333)"><rect width="6" height="6"/></g>
<g transform="translate(380,80) scale(3.4333333333333)"><rect width="6" height="6"/></g>
<g transform="translate(400,80) scale(3.4333333333333)"><rect width="6" height="6"/></g>
<g transform="translate(460,80) scale(3.4333333333333)"><rect width="6" height="6"/></g>
<g transform="translate(500,80) scale(3.4333333333333)"><rect width="6" height="6"/></g>
<g transform="translate(560,80) scale(3.4333333333333)"><rect width="6" height="6"/></g>
<g transform="translate(580,80) scale(3.4333333333333)"><rect width="6" height="6"/></g>
<g transform="translate(600,80) scale(3.4333333333333)"><rect width="6" height="6"/></g>
<g transform="translate(620,80) scale(3.4333333333333)"><rect width="6" height="6"/></g>
<g transform="translate(700,80) scale(3.4333333333333)"><rect width="6" height="6"/></g>
<g transform="translate(740,80) scale(3.4333333333333)"><rect width="6" height="6"/></g>
<g transform="translate(260,100) scale(3.4333333333333)"><rect width="6" height="6"/></g>
<g transform="translate(280,100) scale(3.4333333333333)"><rect width="6" height="6"/></g>
<g transform="translate(360,100) scale(3.4333333333333)"><rect width="6" height="6"/></g>
<g transform="translate(380,100) scale(3.4333333333333)"><rect width="6" height="6"/></g>
<g transform="translate(400,100) scale(3.4333333333333)"><rect width="6" height="6"/></g>
<g transform="translate(440,100) scale(3.4333333333333)"><rect width="6" height="6"/></g>
<g transform="translate(500,100) scale(3.4333333333333)"><rect width="6" height="6"/></g>
<g transform="translate(560,100) scale(3.4333333333333)"><rect width="6" height="6"/></g>
<g transform="translate(580,100) scale(3.4333333333333)"><rect width="6" height="6"/></g>
<g transform="translate(600,100) scale(3.4333333333333)"><rect width="6" height="6"/></g>
<g transform="translate(620,100) scale(3.4333333333333)"><rect width="6" height="6"/></g>
<g transform="translate(660,100) scale(3.4333333333333)"><rect width="6" height="6"/></g>
<g transform="translate(680,100) scale(3.4333333333333)"><rect width="6" height="6"/></g>
<g transform="translate(740,100) scale(3.4333333333333)"><rect width="6" height="6"/></g>
<g transform="translate(760,100) scale(3.4333333333333)"><rect width="6" height="6"/></g>
<g transform="translate(240,120) scale(3.4333333333333)"><rect width="6" height="6"/></g>
<g transform="translate(260,120) scale(3.4333333333333)"><rect width="6" height="6"/></g>
<g transform="translate(280,120) scale(3.4333333333333)"><rect width="6" height="6"/></g>
<g transform="translate(320,120) scale(3.4333333333333)"><rect width="6" height="6"/></g>
<g transform="translate(380,120) scale(3.4333333333333)"><rect width="6" height="6"/></g>
<g transform="translate(400,120) scale(3.4333333333333)"><rect width="6" height="6"/></g>
<g transform="translate(420,120) scale(3.4333333333333)"><rect width="6" height="6"/></g>
<g transform="translate(440,120) scale(3.4333333333333)"><rect width="6" height="6"/></g>
<g transform="translate(460,120) scale(3.4333333333333)"><rect width="6" height="6"/></g>
<g transform="translate(480,120) scale(3.4333333333333)"><rect width="6" height="6"/></g>
<g transform="translate(500,120) scale(3.4333333333333)"><rect width="6" height="6"/></g>
<g transform="translate(520,120) scale(3.4333333333333)"><rect width="6" height="6"/></g>
<g transform="translate(540,120) scale(3.4333333333333)"><rect width="6" height="6"/></g>
<g transform="translate(580,120) scale(3.4333333333333)"><rect width="6" height="6"/></g>
<g transform="translate(620,120) scale(3.4333333333333)"><rect width="6" height="6"/></g>
<g transform="translate(640,120) scale(3.4333333333333)"><rect width="6" height="6"/></g>
<g transform="translate(680,120) scale(3.4333333333333)"><rect width="6" height="6"/></g>
<g transform="translate(720,120) scale(3.4333333333333)"><rect width="6" height="6"/></g>
<g transform="translate(740,120) scale(3.4333333333333)"><rect width="6" height="6"/></g>
<g transform="translate(760,120) scale(3.4333333333333)"><rect width="6" height="6"/></g>
<g transform="translate(200,140) scale(3.4333333333333)"><rect width="6" height="6"/></g>
<g transform="translate(220,140) scale(3.4333333333333)"><rect width="6" height="6"/></g>
<g transform="translate(260,140) scale(3.4333333333333)"><rect width="6" height="6"/></g>
<g transform="translate(300,140) scale(3.4333333333333)"><rect width="6" height="6"/></g>
<g transform="translate(320,140) scale(3.4333333333333)"><rect width="6" height="6"/></g>
<g transform="translate(340,140) scale(3.4333333333333)"><rect width="6" height="6"/></g>
<g transform="translate(380,140) scale(3.4333333333333)"><rect width="6" height="6"/></g>
<g transform="translate(440,140) scale(3.4333333333333)"><rect width="6" height="6"/></g>
<g transform="translate(520,140) scale(3.4333333333333)"><rect width="6" height="6"/></g>
<g transform="translate(540,140) scale(3.4333333333333)"><rect width="6" height="6"/></g>
<g transform="translate(560,140) scale(3.4333333333333)"><rect width="6" height="6"/></g>
<g transform="translate(600,140) scale(3.4333333333333)"><rect width="6" height="6"/></g>
<g transform="translate(660,140) scale(3.4333333333333)"><rect width="6" height="6"/></g>
<g transform="translate(680,140) scale(3.4333333333333)"><rect width="6" height="6"/></g>
<g transform="translate(700,140) scale(3.4333333333333)"><rect width="6" height="6"/></g>
<g transform="translate(200,160) scale(3.4333333333333)"><rect width="6" height="6"/></g>
<g transform="translate(240,160) scale(3.4333333333333)"><rect width="6" height="6"/></g>
<g transform="translate(280,160) scale(3.4333333333333)"><rect width="6" height="6"/></g>
<g transform="translate(320,160) scale(3.4333333333333)"><rect width="6" height="6"/></g>
<g transform="translate(360,160) scale(3.4333333333333)"><rect width="6" height="6"/></g>
<g transform="translate(400,160) scale(3.4333333333333)"><rect width="6" height="6"/></g>
<g transform="translate(440,160) scale(3.4333333333333)"><rect width="6" height="6"/></g>
<g transform="translate(480,160) scale(3.4333333333333)"><rect width="6" height="6"/></g>
<g transform="translate(520,160) scale(3.4333333333333)"><rect width="6" height="6"/></g>
<g transform="translate(560,160) scale(3.4333333333333)"><rect width="6" height="6"/></g>
<g transform="translate(600,160) scale(3.4333333333333)"><rect width="6" height="6"/></g>
<g transform="translate(640,160) scale(3.4333333333333)"><rect width="6" height="6"/></g>
<g transform="translate(680,160) scale(3.4333333333333)"><rect width="6" height="6"/></g>
<g transform="translate(720,160) scale(3.4333333333333)"><rect width="6" height="6"/></g>
<g transform="translate(760,160) scale(3.4333333333333)"><rect width="6" height="6"/></g>
<g transform="translate(200,180) scale(3.4333333333333)"><rect width="6" height="6"/></g>
<g transform="translate(280,180) scale(3.4333333333333)"><rect width="6" height="6"/></g>
<g transform="translate(320,180) scale(3.4333333333333)"><rect width="6" height="6"/></g>
<g transform="translate(380,180) scale(3.4333333333333)"><rect width="6" height="6"/></g>
<g transform="translate(400,180) scale(3.4333333333333)"><rect width="6" height="6"/></g>
<g transform="translate(420,180) scale(3.4333333333333)"><rect width="6" height="6"/></g>
<g transform="translate(440,180) scale(3.4333333333333)"><rect width="6" height="6"/></g>
<g transform="translate(520,180) scale(3.4333333333333)"><rect width="6" height="6"/></g>
<g transform="translate(540,180) scale(3.4333333333333)"><rect width="6" height="6"/></g>
<g transform="translate(560,180) scale(3.4333333333333)"><rect width="6" height="6"/></g>
<g transform="translate(580,180) scale(3.4333333333333)"><rect width="6" height="6"/></g>
<g transform="translate(620,180) scale(3.4333333333333)"><rect width="6" height="6"/></g>
<g transform="translate(640,180) scale(3.4333333333333)"><rect width="6" height="6"/></g>
<g transform="translate(660,180) scale(3.4333333333333)"><rect width="6" height="6"/></g>
<g transform="translate(680,180) scale(3.4333333333333)"><rect width="6" height="6"/></g>
<g transform="translate(720,180) scale(3.4333333333333)"><rect width="6" height="6"/></g>
<g transform="translate(740,180) scale(3.4333333333333)"><rect width="6" height="6"/></g>
<g transform="translate(80,200) scale(3.4333333333333)"><rect width="6" height="6"/></g>
<g transform="translate(100,200) scale(3.4333333333333)"><rect width="6" height="6"/></g>
<g transform="translate(120,200) scale(3.4333333333333)"><rect width="6" height="6"/></g>
<g transform="translate(160,200) scale(3.4333333333333)"><rect width="6" height="6"/></g>
<g transform="translate(200,200) scale(3.4333333333333)"><rect width="6" height="6"/></g>
<g transform="translate(260,200) scale(3.4333333333333)"><rect width="6" height="6"/></g>
<g transform="translate(280,200) scale(3.4333333333333)"><rect width="6" height="6"/></g>
<g transform="translate(300,200) scale(3.4333333333333)"><rect width="6" height="6"/></g>
<g transform="translate(380,200) scale(3.4333333333333)"><rect width="6" height="6"/></g>
<g transform="translate(420,200) scale(3.4333333333333)"><rect width="6" height="6"/></g>
<g transform="translate(440,200) scale(3.4333333333333)"><rect width="6" height="6"/></g>
<g transform="translate(460,200) scale(3.4333333333333)"><rect width="6" height="6"/></g>
<g transform="translate(480,200) scale(3.4333333333333)"><rect width="6" height="6"/></g>
<g transform="translate(500,200) scale(3.4333333333333)"><rect width="6" height="6"/></g>
<g transform="translate(520,200) scale(3.4333333333333)"><rect width="6" height="6"/></g>
<g transform="translate(560,200) scale(3.4333333333333)"><rect width="6" height="6"/></g>
<g transform="translate(620,200) scale(3.4333333333333)"><rect width="6" height="6"/></g>
<g transform="translate(640,200) scale(3.4333333333333)"><rect width="6" height="6"/></g>
<g transform="translate(660,200) scale(3.4333333333333)"><rect width="6" height="6"/></g>
<g transform="translate(720,200) scale(3.4333333333333)"><rect width="6" height="6"/></g>
<g transform="translate(780,200) scale(3.4333333333333)"><rect width="6" height="6"/></g>
<g transform="translate(800,200) scale(3.4333333333333)"><rect width="6" height="6"/></g>
<g transform="translate(820,200) scale(3.4333333333333)"><rect width="6" height="6"/></g>
<g transform="translate(880,200) scale(3.4333333333333)"><rect width="6" height="6"/></g>
<g transform="translate(900,200) scale(3.4333333333333)"><rect width="6" height="6"/></g>
<g transform="translate(920,200) scale(3.4333333333333)"><rect width="6" height="6"/></g>
<g transform="translate(40,220) scale(3.4333333333333)"><rect width="6" height="6"/></g>
<g transform="translate(60,220) scale(3.4333333333333)"><rect width="6" height="6"/></g>
<g transform="translate(80,220) scale(3.4333333333333)"><rect width="6" height="6"/></g>
<g transform="translate(100,220) scale(3.4333333333333)"><rect width="6" height="6"/></g>
<g transform="translate(180,220) scale(3.4333333333333)"><rect width="6" height="6"/></g>
<g transform="translate(200,220) scale(3.4333333333333)"><rect width="6" height="6"/></g>
<g transform="translate(240,220) scale(3.4333333333333)"><rect width="6" height="6"/></g>
<g transform="translate(280,220) scale(3.4333333333333)"><rect width="6" height="6"/></g>
<g transform="translate(300,220) scale(3.4333333333333)"><rect width="6" height="6"/></g>
<g transform="translate(340,220) scale(3.4333333333333)"><rect width="6" height="6"/></g>
<g transform="translate(380,220) scale(3.4333333333333)"><rect width="6" height="6"/></g>
<g transform="translate(420,220) scale(3.4333333333333)"><rect width="6" height="6"/></g>
<g transform="translate(440,220) scale(3.4333333333333)"><rect width="6" height="6"/></g>
<g transform="translate(460,220) scale(3.4333333333333)"><rect width="6" height="6"/></g>
<g transform="translate(500,220) scale(3.4333333333333)"><rect width="6" height="6"/></g>
<g transform="translate(520,220) scale(3.4333333333333)"><rect width="6" height="6"/></g>
<g transform="translate(580,220) scale(3.4333333333333)"><rect width="6" height="6"/></g>
<g transform="translate(600,220) scale(3.4333333333333)"><rect width="6" height="6"/></g>
<g transform="translate(620,220) scale(3.4333333333333)"><rect width="6" height="6"/></g>
<g transform="translate(640,220) scale(3.4333333333333)"><rect width="6" height="6"/></g>
<g transform="translate(660,220) scale(3.4333333333333)"><rect width="6" height="6"/></g>
<g transform="translate(700,220) scale(3.4333333333333)"><rect width="6" height="6"/></g>
<g transform="translate(740,220) scale(3.4333333333333)"><rect width="6" height="6"/></g>
<g transform="translate(760,220) scale(3.4333333333333)"><rect width="6" height="6"/></g>
<g transform="translate(780,220) scale(3.4333333333333)"><rect width="6" height="6"/></g>
<g transform="translate(860,220) scale(3.4333333333333)"><rect width="6" height="6"/></g>
<g transform="translate(920,220) scale(3.4333333333333)"><rect width="6" height="6"/></g>
<g transform="translate(60,240) scale(3.4333333333333)"><rect width="6" height="6"/></g>
<g transform="translate(100,240) scale(3.4333333333333)"><rect width="6" height="6"/></g>
<g transform="translate(120,240) scale(3.4333333333333)"><rect width="6" height="6"/></g>
<g transform="translate(160,240) scale(3.4333333333333)"><rect width="6" height="6"/></g>
<g transform="translate(180,240) scale(3.4333333333333)"><rect width="6" height="6"/></g>
<g transform="translate(220,240) scale(3.4333333333333)"><rect width="6" height="6"/></g>
<g transform="translate(340,240) scale(3.4333333333333)"><rect width="6" height="6"/></g>
<g transform="translate(360,240) scale(3.4333333333333)"><rect width="6" height="6"/></g>
<g transform="translate(400,240) scale(3.4333333333333)"><rect width="6" height="6"/></g>
<g transform="translate(520,240) scale(3.4333333333333)"><rect width="6" height="6"/></g>
<g transform="translate(540,240) scale(3.4333333333333)"><rect width="6" height="6"/></g>
<g transform="translate(700,240) scale(3.4333333333333)"><rect width="6" height="6"/></g>
<g transform="translate(720,240) scale(3.4333333333333)"><rect width="6" height="6"/></g>
<g transform="translate(740,240) scale(3.4333333333333)"><rect width="6" height="6"/></g>
<g transform="translate(760,240) scale(3.4333333333333)"><rect width="6" height="6"/></g>
<g transform="translate(800,240) scale(3.4333333333333)"><rect width="6" height="6"/></g>
<g transform="translate(820,240) scale(3.4333333333333)"><rect width="6" height="6"/></g>
<g transform="translate(860,240) scale(3.4333333333333)"><rect width="6" height="6"/></g>
<g transform="translate(900,240) scale(3.4333333333333)"><rect width="6" height="6"/></g>
<g transform="translate(80,260) scale(3.4333333333333)"><rect width="6" height="6"/></g>
<g transform="translate(100,260) scale(3.4333333333333)"><rect width="6" height="6"/></g>
<g transform="translate(120,260) scale(3.4333333333333)"><rect width="6" height="6"/></g>
<g transform="translate(380,260) scale(3.4333333333333)"><rect width="6" height="6"/></g>
<g transform="translate(400,260) scale(3.4333333333333)"><rect width="6" height="6"/></g>
<g transform="translate(440,260) scale(3.4333333333333)"><rect width="6" height="6"/></g>
<g transform="translate(520,260) scale(3.4333333333333)"><rect width="6" height="6"/></g>
<g transform="translate(540,260) scale(3.4333333333333)"><rect width="6" height="6"/></g>
<g transform="translate(620,260) scale(3.4333333333333)"><rect width="6" height="6"/></g>
<g transform="translate(640,260) scale(3.4333333333333)"><rect width="6" height="6"/></g>
<g transform="translate(680,260) scale(3.4333333333333)"><rect width="6" height="6"/></g>
<g transform="translate(720,260) scale(3.4333333333333)"><rect width="6" height="6"/></g>
<g transform="translate(740,260) scale(3.4333333333333)"><rect width="6" height="6"/></g>
<g transform="translate(760,260) scale(3.4333333333333)"><rect width="6" height="6"/></g>
<g transform="translate(820,260) scale(3.4333333333333)"><rect width="6" height="6"/></g>
<g transform="translate(840,260) scale(3.4333333333333)"><rect width="6" height="6"/></g>
<g transform="translate(860,260) scale(3.4333333333333)"><rect width="6" height="6"/></g>
<g transform="translate(880,260) scale(3.4333333333333)"><rect width="6" height="6"/></g>
<g transform="translate(900,260) scale(3.4333333333333)"><rect width="6" height="6"/></g>
<g transform="translate(920,260) scale(3.4333333333333)"><rect width="6" height="6"/></g>
<g transform="translate(40,280) scale(3.4333333333333)"><rect width="6" height="6"/></g>
<g transform="translate(60,280) scale(3.4333333333333)"><rect width="6" height="6"/></g>
<g transform="translate(80,280) scale(3.4333333333333)"><rect width="6" height="6"/></g>
<g transform="translate(120,280) scale(3.4333333333333)"><rect width="6" height="6"/></g>
<g transform="translate(160,280) scale(3.4333333333333)"><rect width="6" height="6"/></g>
<g transform="translate(180,280) scale(3.4333333333333)"><rect width="6" height="6"/></g>
<g transform="translate(200,280) scale(3.4333333333333)"><rect width="6" height="6"/></g>
<g transform="translate(300,280) scale(3.4333333333333)"><rect width="6" height="6"/></g>
<g transform="translate(340,280) scale(3.4333333333333)"><rect width="6" height="6"/></g>
<g transform="translate(380,280) scale(3.4333333333333)"><rect width="6" height="6"/></g>
<g transform="translate(400,280) scale(3.4333333333333)"><rect width="6" height="6"/></g>
<g transform="translate(440,280) scale(3.4333333333333)"><rect width="6" height="6"/></g>
<g transform="translate(500,280) scale(3.4333333333333)"><rect width="6" height="6"/></g>
<g transform="translate(560,280) scale(3.4333333333333)"><rect width="6" height="6"/></g>
<g transform="translate(600,280) scale(3.4333333333333)"><rect width="6" height="6"/></g>
<g transform="translate(640,280) scale(3.4333333333333)"><rect width="6" height="6"/></g>
<g transform="translate(660,280) scale(3.4333333333333)"><rect width="6" height="6"/></g>
<g transform="translate(700,280) scale(3.4333333333333)"><rect width="6" height="6"/></g>
<g transform="translate(720,280) scale(3.4333333333333)"><rect width="6" height="6"/></g>
<g transform="translate(60,300) scale(3.4333333333333)"><rect width="6" height="6"/></g>
<g transform="translate(80,300) scale(3.4333333333333)"><rect width="6" height="6"/></g>
<g transform="translate(200,300) scale(3.4333333333333)"><rect width="6" height="6"/></g>
<g transform="translate(220,300) scale(3.4333333333333)"><rect width="6" height="6"/></g>
<g transform="translate(240,300) scale(3.4333333333333)"><rect width="6" height="6"/></g>
<g transform="translate(260,300) scale(3.4333333333333)"><rect width="6" height="6"/></g>
<g transform="translate(280,300) scale(3.4333333333333)"><rect width="6" height="6"/></g>
<g transform="translate(320,300) scale(3.4333333333333)"><rect width="6" height="6"/></g>
<g transform="translate(380,300) scale(3.4333333333333)"><rect width="6" height="6"/></g>
<g transform="translate(440,300) scale(3.4333333333333)"><rect width="6" height="6"/></g>
<g transform="translate(520,300) scale(3.4333333333333)"><rect width="6" height="6"/></g>
<g transform="translate(560,300) scale(3.4333333333333)"><rect width="6" height="6"/></g>
<g transform="translate(580,300) scale(3.4333333333333)"><rect width="6" height="6"/></g>
<g transform="translate(600,300) scale(3.4333333333333)"><rect width="6" height="6"/></g>
<g transform="translate(620,300) scale(3.4333333333333)"><rect width="6" height="6"/></g>
<g transform="translate(640,300) scale(3.4333333333333)"><rect width="6" height="6"/></g>
<g transform="translate(740,300) scale(3.4333333333333)"><rect width="6" height="6"/></g>
<g transform="translate(760,300) scale(3.4333333333333)"><rect width="6" height="6"/></g>
<g transform="translate(780,300) scale(3.4333333333333)"><rect width="6" height="6"/></g>
<g transform="translate(900,300) scale(3.4333333333333)"><rect width="6" height="6"/></g>
<g transform="translate(920,300) scale(3.4333333333333)"><rect width="6" height="6"/></g>
<g transform="translate(80,320) scale(3.4333333333333)"><rect width="6" height="6"/></g>
<g transform="translate(120,320) scale(3.4333333333333)"><rect width="6" height="6"/></g>
<g transform="translate(140,320) scale(3.4333333333333)"><rect width="6" height="6"/></g>
<g transform="translate(160,320) scale(3.4333333333333)"><rect width="6" height="6"/></g>
<g transform="translate(200,320) scale(3.4333333333333)"><rect width="6" height="6"/></g>
<g transform="translate(220,320) scale(3.4333333333333)"><rect width="6" height="6"/></g>
<g transform="translate(340,320) scale(3.4333333333333)"><rect width="6" height="6"/></g>
<g transform="translate(460,320) scale(3.4333333333333)"><rect width="6" height="6"/></g>
<g transform="translate(520,320) scale(3.4333333333333)"><rect width="6" height="6"/></g>
<g transform="translate(580,320) scale(3.4333333333333)"><rect width="6" height="6"/></g>
<g transform="translate(660,320) scale(3.4333333333333)"><rect width="6" height="6"/></g>
<g transform="translate(700,320) scale(3.4333333333333)"><rect width="6" height="6"/></g>
<g transform="translate(720,320) scale(3.4333333333333)"><rect width="6" height="6"/></g>
<g transform="translate(740,320) scale(3.4333333333333)"><rect width="6" height="6"/></g>
<g transform="translate(780,320) scale(3.4333333333333)"><rect width="6" height="6"/></g>
<g transform="translate(800,320) scale(3.4333333333333)"><rect width="6" height="6"/></g>
<g transform="translate(820,320) scale(3.4333333333333)"><rect width="6" height="6"/></g>
<g transform="translate(880,320) scale(3.4333333333333)"><rect width="6" height="6"/></g>
<g transform="translate(900,320) scale(3.4333333333333)"><rect width="6" height="6"/></g>
<g transform="translate(80,340) scale(3.4333333333333)"><rect width="6" height="6"/></g>
<g transform="translate(100,340) scale(3.4333333333333)"><rect width="6" height="6"/></g>
<g transform="translate(120,340) scale(3.4333333333333)"><rect width="6" height="6"/></g>
<g transform="translate(140,340) scale(3.4333333333333)"><rect width="6" height="6"/></g>
<g transform="translate(220,340) scale(3.4333333333333)"><rect width="6" height="6"/></g>
<g transform="translate(260,340) scale(3.4333333333333)"><rect width="6" height="6"/></g>
<g transform="translate(280,340) scale(3.4333333333333)"><rect width="6" height="6"/></g>
<g transform="translate(300,340) scale(3.4333333333333)"><rect width="6" height="6"/></g>
<g transform="translate(360,340) scale(3.4333333333333)"><rect width="6" height="6"/></g>
<g transform="translate(380,340) scale(3.4333333333333)"><rect width="6" height="6"/></g>
<g transform="translate(400,340) scale(3.4333333333333)"><rect width="6" height="6"/></g>
<g transform="translate(420,340) scale(3.4333333333333)"><rect width="6" height="6"/></g>
<g transform="translate(480,340) scale(3.4333333333333)"><rect width="6" height="6"/></g>
<g transform="translate(500,340) scale(3.4333333333333)"><rect width="6" height="6"/></g>
<g transform="translate(540,340) scale(3.4333333333333)"><rect width="6" height="6"/></g>
<g transform="translate(560,340) scale(3.4333333333333)"><rect width="6" height="6"/></g>
<g transform="translate(600,340) scale(3.4333333333333)"><rect width="6" height="6"/></g>
<g transform="translate(640,340) scale(3.4333333333333)"><rect width="6" height="6"/></g>
<g transform="translate(680,340) scale(3.4333333333333)"><rect width="6" height="6"/></g>
<g transform="translate(740,340) scale(3.4333333333333)"><rect width="6" height="6"/></g>
<g transform="translate(780,340) scale(3.4333333333333)"><rect width="6" height="6"/></g>
<g transform="translate(800,340) scale(3.4333333333333)"><rect width="6" height="6"/></g>
<g transform="translate(840,340) scale(3.4333333333333)"><rect width="6" height="6"/></g>
<g transform="translate(860,340) scale(3.4333333333333)"><rect width="6" height="6"/></g>
<g transform="translate(880,340) scale(3.4333333333333)"><rect width="6" height="6"/></g>
<g transform="translate(900,340) scale(3.4333333333333)"><rect width="6" height="6"/></g>
<g transform="translate(40,360) scale(3.4333333333333)"><rect width="6" height="6"/></g>
<g transform="translate(80,360) scale(3.4333333333333)"><rect width="6" height="6"/></g>
<g transform="translate(140,360) scale(3.4333333333333)"><rect width="6" height="6"/></g>
<g transform="translate(160,360) scale(3.4333333333333)"><rect width="6" height="6"/></g>
<g transform="translate(180,360) scale(3.4333333333333)"><rect width="6" height="6"/></g>
<g transform="translate(260,360) scale(3.4333333333333)"><rect width="6" height="6"/></g>
<g transform="translate(280,360) scale(3.4333333333333)"><rect width="6" height="6"/></g>
<g transform="translate(300,360) scale(3.4333333333333)"><rect width="6" height="6"/></g>
<g transform="translate(320,360) scale(3.4333333333333)"><rect width="6" height="6"/></g>
<g transform="translate(360,360) scale(3.4333333333333)"><rect width="6" height="6"/></g>
<g transform="translate(400,360) scale(3.4333333333333)"><rect width="6" height="6"/></g>
<g transform="translate(420,360) scale(3.4333333333333)"><rect width="6" height="6"/></g>
<g transform="translate(500,360) scale(3.4333333333333)"><rect width="6" height="6"/></g>
<g transform="translate(540,360) scale(3.4333333333333)"><rect width="6" height="6"/></g>
<g transform="translate(560,360) scale(3.4333333333333)"><rect width="6" height="6"/></g>
<g transform="translate(600,360) scale(3.4333333333333)"><rect width="6" height="6"/></g>
<g transform="translate(620,360) scale(3.4333333333333)"><rect width="6" height="6"/></g>
<g transform="translate(640,360) scale(3.4333333333333)"><rect width="6" height="6"/></g>
<g transform="translate(660,360) scale(3.4333333333333)"><rect width="6" height="6"/></g>
<g transform="translate(780,360) scale(3.4333333333333)"><rect width="6" height="6"/></g>
<g transform="translate(800,360) scale(3.4333333333333)"><rect width="6" height="6"/></g>
<g transform="translate(860,360) scale(3.4333333333333)"><rect width="6" height="6"/></g>
<g transform="translate(40,380) scale(3.4333333333333)"><rect width="6" height="6"/></g>
<g transform="translate(60,380) scale(3.4333333333333)"><rect width="6" height="6"/></g>
<g transform="translate(100,380) scale(3.4333333333333)"><rect width="6" height="6"/></g>
<g transform="translate(140,380) scale(3.4333333333333)"><rect width="6" height="6"/></g>
<g transform="translate(200,380) scale(3.4333333333333)"><rect width="6" height="6"/></g>
<g transform="translate(240,380) scale(3.4333333333333)"><rect width="6" height="6"/></g>
<g transform="translate(260,380) scale(3.4333333333333)"><rect width="6" height="6"/></g>
<g transform="translate(280,380) scale(3.4333333333333)"><rect width="6" height="6"/></g>
<g transform="translate(340,380) scale(3.4333333333333)"><rect width="6" height="6"/></g>
<g transform="translate(360,380) scale(3.4333333333333)"><rect width="6" height="6"/></g>
<g transform="translate(420,380) scale(3.4333333333333)"><rect width="6" height="6"/></g>
<g transform="translate(440,380) scale(3.4333333333333)"><rect width="6" height="6"/></g>
<g transform="translate(480,380) scale(3.4333333333333)"><rect width="6" height="6"/></g>
<g transform="translate(520,380) scale(3.4333333333333)"><rect width="6" height="6"/></g>
<g transform="translate(560,380) scale(3.4333333333333)"><rect width="6" height="6"/></g>
<g transform="translate(600,380) scale(3.4333333333333)"><rect width="6" height="6"/></g>
<g transform="translate(640,380) scale(3.4333333333333)"><rect width="6" height="6"/></g>
<g transform="translate(740,380) scale(3.4333333333333)"><rect width="6" height="6"/></g>
<g transform="translate(760,380) scale(3.4333333333333)"><rect width="6" height="6"/></g>
<g transform="translate(780,380) scale(3.4333333333333)"><rect width="6" height="6"/></g>
<g transform="translate(880,380) scale(3.4333333333333)"><rect width="6" height="6"/></g>
<g transform="translate(920,380) scale(3.4333333333333)"><rect width="6" height="6"/></g>
<g transform="translate(40,400) scale(3.4333333333333)"><rect width="6" height="6"/></g>
<g transform="translate(120,400) scale(3.4333333333333)"><rect width="6" height="6"/></g>
<g transform="translate(140,400) scale(3.4333333333333)"><rect width="6" height="6"/></g>
<g transform="translate(160,400) scale(3.4333333333333)"><rect width="6" height="6"/></g>
<g transform="translate(180,400) scale(3.4333333333333)"><rect width="6" height="6"/></g>
<g transform="translate(200,400) scale(3.4333333333333)"><rect width="6" height="6"/></g>
<g transform="translate(260,400) scale(3.4333333333333)"><rect width="6" height="6"/></g>
<g transform="translate(280,400) scale(3.4333333333333)"><rect width="6" height="6"/></g>
<g transform="translate(300,400) scale(3.4333333333333)"><rect width="6" height="6"/></g>
<g transform="translate(340,400) scale(3.4333333333333)"><rect width="6" height="6"/></g>
<g transform="translate(400,400) scale(3.4333333333333)"><rect width="6" height="6"/></g>
<g transform="translate(440,400) scale(3.4333333333333)"><rect width="6" height="6"/></g>
<g transform="translate(500,400) scale(3.4333333333333)"><rect width="6" height="6"/></g>
<g transform="translate(520,400) scale(3.4333333333333)"><rect width="6" height="6"/></g>
<g transform="translate(580,400) scale(3.4333333333333)"><rect width="6" height="6"/></g>
<g transform="translate(620,400) scale(3.4333333333333)"><rect width="6" height="6"/></g>
<g transform="translate(640,400) scale(3.4333333333333)"><rect width="6" height="6"/></g>
<g transform="translate(680,400) scale(3.4333333333333)"><rect width="6" height="6"/></g>
<g transform="translate(720,400) scale(3.4333333333333)"><rect width="6" height="6"/></g>
<g transform="translate(740,400) scale(3.4333333333333)"><rect width="6" height="6"/></g>
<g transform="translate(800,400) scale(3.4333333333333)"><rect width="6" height="6"/></g>
<g transform="translate(900,400) scale(3.4333333333333)"><rect width="6" height="6"/></g>
<g transform="translate(40,420) scale(3.4333333333333)"><rect width="6" height="6"/></g>
<g transform="translate(80,420) scale(3.4333333333333)"><rect width="6" height="6"/></g>
<g transform="translate(200,420) scale(3.4333333333333)"><rect width="6" height="6"/></g>
<g transform="translate(280,420) scale(3.4333333333333)"><rect width="6" height="6"/></g>
<g transform="translate(340,420) scale(3.4333333333333)"><rect width="6" height="6"/></g>
<g transform="translate(380,420) scale(3.4333333333333)"><rect width="6" height="6"/></g>
<g transform="translate(480,420) scale(3.4333333333333)"><rect width="6" height="6"/></g>
<g transform="translate(620,420) scale(3.4333333333333)"><rect width="6" height="6"/></g>
<g transform="translate(660,420) scale(3.4333333333333)"><rect width="6" height="6"/></g>
<g transform="translate(680,420) scale(3.4333333333333)"><rect width="6" height="6"/></g>
<g transform="translate(720,420) scale(3.4333333333333)"><rect width="6" height="6"/></g>
<g transform="translate(740,420) scale(3.4333333333333)"><rect width="6" height="6"/></g>
<g transform="translate(820,420) scale(3.4333333333333)"><rect width="6" height="6"/></g>
<g transform="translate(840,420) scale(3.4333333333333)"><rect width="6" height="6"/></g>
<g transform="translate(880,420) scale(3.4333333333333)"><rect width="6" height="6"/></g>
<g transform="translate(900,420) scale(3.4333333333333)"><rect width="6" height="6"/></g>
<g transform="translate(40,440) scale(3.4333333333333)"><rect width="6" height="6"/></g>
<g transform="translate(100,440) scale(3.4333333333333)"><rect width="6" height="6"/></g>
<g transform="translate(120,440) scale(3.4333333333333)"><rect width="6" height="6"/></g>
<g transform="translate(140,440) scale(3.4333333333333)"><rect width="6" height="6"/></g>
<g transform="translate(160,440) scale(3.4333333333333)"><rect width="6" height="6"/></g>
<g transform="translate(180,440) scale(3.4333333333333)"><rect width="6" height="6"/></g>
<g transform="translate(200,440) scale(3.4333333333333)"><rect width="6" height="6"/></g>
<g transform="translate(220,440) scale(3.4333333333333)"><rect width="6" height="6"/></g>
<g transform="translate(240,440) scale(3.4333333333333)"><rect width="6" height="6"/></g>
<g transform="translate(260,440) scale(3.4333333333333)"><rect width="6" height="6"/></g>
<g transform="translate(360,440) scale(3.4333333333333)"><rect width="6" height="6"/></g>
<g transform="translate(400,440) scale(3.4333333333333)"><rect width="6" height="6"/></g>
<g transform="translate(420,440) scale(3.4333333333333)"><rect width="6" height="6"/></g>
<g transform="translate(440,440) scale(3.4333333333333)"><rect width="6" height="6"/></g>
<g transform="translate(460,440) scale(3.4333333333333)"><rect width="6" height="6"/></g>
<g transform="translate(480,440) scale(3.4333333333333)"><rect width="6" height="6"/></g>
<g transform="translate(500,440) scale(3.4333333333333)"><rect width="6" height="6"/></g>
<g transform="translate(520,440) scale(3.4333333333333)"><rect width="6" height="6"/></g>
<g transform="translate(540,440) scale(3.4333333333333)"><rect width="6" height="6"/></g>
<g transform="translate(580,440) scale(3.4333333333333)"><rect width="6" height="6"/></g>
<g transform="translate(660,440) scale(3.4333333333333)"><rect width="6" height="6"/></g>
<g transform="translate(760,440) scale(3.4333333333333)"><rect width="6" height="6"/></g>
<g transform="translate(780,440) scale(3.4333333333333)"><rect width="6" height="6"/></g>
<g transform="translate(800,440) scale(3.4333333333333)"><rect width="6" height="6"/></g>
<g transform="translate(820,440) scale(3.4333333333333)"><rect width="6" height="6"/></g>
<g transform="translate(840,440) scale(3.4333333333333)"><rect width="6" height="6"/></g>
<g transform="translate(900,440) scale(3.4333333333333)"><rect width="6" height="6"/></g>
<g transform="translate(100,460) scale(3.4333333333333)"><rect width="6" height="6"/></g>
<g transform="translate(120,460) scale(3.4333333333333)"><rect width="6" height="6"/></g>
<g transform="translate(200,460) scale(3.4333333333333)"><rect width="6" height="6"/></g>
<g transform="translate(260,460) scale(3.4333333333333)"><rect width="6" height="6"/></g>
<g transform="translate(300,460) scale(3.4333333333333)"><rect width="6" height="6"/></g>
<g transform="translate(320,460) scale(3.4333333333333)"><rect width="6" height="6"/></g>
<g transform="translate(340,460) scale(3.4333333333333)"><rect width="6" height="6"/></g>
<g transform="translate(380,460) scale(3.4333333333333)"><rect width="6" height="6"/></g>
<g transform="translate(440,460) scale(3.4333333333333)"><rect width="6" height="6"/></g>
<g transform="translate(520,460) scale(3.4333333333333)"><rect width="6" height="6"/></g>
<g transform="translate(540,460) scale(3.4333333333333)"><rect width="6" height="6"/></g>
<g transform="translate(560,460) scale(3.4333333333333)"><rect width="6" height="6"/></g>
<g transform="translate(580,460) scale(3.4333333333333)"><rect width="6" height="6"/></g>
<g transform="translate(620,460) scale(3.4333333333333)"><rect width="6" height="6"/></g>
<g transform="translate(660,460) scale(3.4333333333333)"><rect width="6" height="6"/></g>
<g transform="translate(740,460) scale(3.4333333333333)"><rect width="6" height="6"/></g>
<g transform="translate(760,460) scale(3.4333333333333)"><rect width="6" height="6"/></g>
<g transform="translate(840,460) scale(3.4333333333333)"><rect width="6" height="6"/></g>
<g transform="translate(880,460) scale(3.4333333333333)"><rect width="6" height="6"/></g>
<g transform="translate(920,460) scale(3.4333333333333)"><rect width="6" height="6"/></g>
<g transform="translate(100,480) scale(3.4333333333333)"><rect width="6" height="6"/></g>
<g transform="translate(120,480) scale(3.4333333333333)"><rect width="6" height="6"/></g>
<g transform="translate(160,480) scale(3.4333333333333)"><rect width="6" height="6"/></g>
<g transform="translate(200,480) scale(3.4333333333333)"><rect width="6" height="6"/></g>
<g transform="translate(220,480) scale(3.4333333333333)"><rect width="6" height="6"/></g>
<g transform="translate(240,480) scale(3.4333333333333)"><rect width="6" height="6"/></g>
<g transform="translate(260,480) scale(3.4333333333333)"><rect width="6" height="6"/></g>
<g transform="translate(280,480) scale(3.4333333333333)"><rect width="6" height="6"/></g>
<g transform="translate(300,480) scale(3.4333333333333)"><rect width="6" height="6"/></g>
<g transform="translate(320,480) scale(3.4333333333333)"><rect width="6" height="6"/></g>
<g transform="translate(340,480) scale(3.4333333333333)"><rect width="6" height="6"/></g>
<g transform="translate(380,480) scale(3.4333333333333)"><rect width="6" height="6"/></g>
<g transform="translate(440,480) scale(3.4333333333333)"><rect width="6" height="6"/></g>
<g transform="translate(480,480) scale(3.4333333333333)"><rect width="6" height="6"/></g>
<g transform="translate(520,480) scale(3.4333333333333)"><rect width="6" height="6"/></g>
<g transform="translate(640,480) scale(3.4333333333333)"><rect width="6" height="6"/></g>
<g transform="translate(680,480) scale(3.4333333333333)"><rect width="6" height="6"/></g>
<g transform="translate(720,480) scale(3.4333333333333)"><rect width="6" height="6"/></g>
<g transform="translate(760,480) scale(3.4333333333333)"><rect width="6" height="6"/></g>
<g transform="translate(800,480) scale(3.4333333333333)"><rect width="6" height="6"/></g>
<g transform="translate(840,480) scale(3.4333333333333)"><rect width="6" height="6"/></g>
<g transform="translate(860,480) scale(3.4333333333333)"><rect width="6" height="6"/></g>
<g transform="translate(900,480) scale(3.4333333333333)"><rect width="6" height="6"/></g>
<g transform="translate(60,500) scale(3.4333333333333)"><rect width="6" height="6"/></g>
<g transform="translate(100,500) scale(3.4333333333333)"><rect width="6" height="6"/></g>
<g transform="translate(120,500) scale(3.4333333333333)"><rect width="6" height="6"/></g>
<g transform="translate(200,500) scale(3.4333333333333)"><rect width="6" height="6"/></g>
<g transform="translate(260,500) scale(3.4333333333333)"><rect width="6" height="6"/></g>
<g transform="translate(280,500) scale(3.4333333333333)"><rect width="6" height="6"/></g>
<g transform="translate(300,500) scale(3.4333333333333)"><rect width="6" height="6"/></g>
<g transform="translate(340,500) scale(3.4333333333333)"><rect width="6" height="6"/></g>
<g transform="translate(360,500) scale(3.4333333333333)"><rect width="6" height="6"/></g>
<g transform="translate(420,500) scale(3.4333333333333)"><rect width="6" height="6"/></g>
<g transform="translate(440,500) scale(3.4333333333333)"><rect width="6" height="6"/></g>
<g transform="translate(520,500) scale(3.4333333333333)"><rect width="6" height="6"/></g>
<g transform="translate(560,500) scale(3.4333333333333)"><rect width="6" height="6"/></g>
<g transform="translate(580,500) scale(3.4333333333333)"><rect width="6" height="6"/></g>
<g transform="translate(700,500) scale(3.4333333333333)"><rect width="6" height="6"/></g>
<g transform="translate(720,500) scale(3.4333333333333)"><rect width="6" height="6"/></g>
<g transform="translate(760,500) scale(3.4333333333333)"><rect width="6" height="6"/></g>
<g transform="translate(840,500) scale(3.4333333333333)"><rect width="6" height="6"/></g>
<g transform="translate(860,500) scale(3.4333333333333)"><rect width="6" height="6"/></g>
<g transform="translate(880,500) scale(3.4333333333333)"><rect width="6" height="6"/></g>
<g transform="translate(900,500) scale(3.4333333333333)"><rect width="6" height="6"/></g>
<g transform="translate(60,520) scale(3.4333333333333)"><rect width="6" height="6"/></g>
<g transform="translate(100,520) scale(3.4333333333333)"><rect width="6" height="6"/></g>
<g transform="translate(120,520) scale(3.4333333333333)"><rect width="6" height="6"/></g>
<g transform="translate(140,520) scale(3.4333333333333)"><rect width="6" height="6"/></g>
<g transform="translate(160,520) scale(3.4333333333333)"><rect width="6" height="6"/></g>
<g transform="translate(180,520) scale(3.4333333333333)"><rect width="6" height="6"/></g>
<g transform="translate(200,520) scale(3.4333333333333)"><rect width="6" height="6"/></g>
<g transform="translate(280,520) scale(3.4333333333333)"><rect width="6" height="6"/></g>
<g transform="translate(300,520) scale(3.4333333333333)"><rect width="6" height="6"/></g>
<g transform="translate(360,520) scale(3.4333333333333)"><rect width="6" height="6"/></g>
<g transform="translate(440,520) scale(3.4333333333333)"><rect width="6" height="6"/></g>
<g transform="translate(460,520) scale(3.4333333333333)"><rect width="6" height="6"/></g>
<g transform="translate(480,520) scale(3.4333333333333)"><rect width="6" height="6"/></g>
<g transform="translate(500,520) scale(3.4333333333333)"><rect width="6" height="6"/></g>
<g transform="translate(520,520) scale(3.4333333333333)"><rect width="6" height="6"/></g>
<g transform="translate(540,520) scale(3.4333333333333)"><rect width="6" height="6"/></g>
<g transform="translate(560,520) scale(3.4333333333333)"><rect width="6" height="6"/></g>
<g transform="translate(600,520) scale(3.4333333333333)"><rect width="6" height="6"/></g>
<g transform="translate(620,520) scale(3.4333333333333)"><rect width="6" height="6"/></g>
<g transform="translate(760,520) scale(3.4333333333333)"><rect width="6" height="6"/></g>
<g transform="translate(780,520) scale(3.4333333333333)"><rect width="6" height="6"/></g>
<g transform="translate(800,520) scale(3.4333333333333)"><rect width="6" height="6"/></g>
<g transform="translate(820,520) scale(3.4333333333333)"><rect width="6" height="6"/></g>
<g transform="translate(840,520) scale(3.4333333333333)"><rect width="6" height="6"/></g>
<g transform="translate(900,520) scale(3.4333333333333)"><rect width="6" height="6"/></g>
<g transform="translate(920,520) scale(3.4333333333333)"><rect width="6" height="6"/></g>
<g transform="translate(100,540) scale(3.4333333333333)"><rect width="6" height="6"/></g>
<g transform="translate(120,540) scale(3.4333333333333)"><rect width="6" height="6"/></g>
<g transform="translate(140,540) scale(3.4333333333333)"><rect width="6" height="6"/></g>
<g transform="translate(180,540) scale(3.4333333333333)"><rect width="6" height="6"/></g>
<g transform="translate(220,540) scale(3.4333333333333)"><rect width="6" height="6"/></g>
<g transform="translate(240,540) scale(3.4333333333333)"><rect width="6" height="6"/></g>
<g transform="translate(280,540) scale(3.4333333333333)"><rect width="6" height="6"/></g>
<g transform="translate(420,540) scale(3.4333333333333)"><rect width="6" height="6"/></g>
<g transform="translate(440,540) scale(3.4333333333333)"><rect width="6" height="6"/></g>
<g transform="translate(460,540) scale(3.4333333333333)"><rect width="6" height="6"/></g>
<g transform="translate(480,540) scale(3.4333333333333)"><rect width="6" height="6"/></g>
<g transform="translate(520,540) scale(3.4333333333333)"><rect width="6" height="6"/></g>
<g transform="translate(560,540) scale(3.4333333333333)"><rect width="6" height="6"/></g>
<g transform="translate(620,540) scale(3.4333333333333)"><rect width="6" height="6"/></g>
<g transform="translate(660,540) scale(3.4333333333333)"><rect width="6" height="6"/></g>
<g transform="translate(740,540) scale(3.4333333333333)"><rect width="6" height="6"/></g>
<g transform="translate(760,540) scale(3.4333333333333)"><rect width="6" height="6"/></g>
<g transform="translate(800,540) scale(3.4333333333333)"><rect width="6" height="6"/></g>
<g transform="translate(860,540) scale(3.4333333333333)"><rect width="6" height="6"/></g>
<g transform="translate(880,540) scale(3.4333333333333)"><rect width="6" height="6"/></g>
<g transform="translate(920,540) scale(3.4333333333333)"><rect width="6" height="6"/></g>
<g transform="translate(60,560) scale(3.4333333333333)"><rect width="6" height="6"/></g>
<g transform="translate(80,560) scale(3.4333333333333)"><rect width="6" height="6"/></g>
<g transform="translate(120,560) scale(3.4333333333333)"><rect width="6" height="6"/></g>
<g transform="translate(140,560) scale(3.4333333333333)"><rect width="6" height="6"/></g>
<g transform="translate(160,560) scale(3.4333333333333)"><rect width="6" height="6"/></g>
<g transform="translate(180,560) scale(3.4333333333333)"><rect width="6" height="6"/></g>
<g transform="translate(200,560) scale(3.4333333333333)"><rect width="6" height="6"/></g>
<g transform="translate(240,560) scale(3.4333333333333)"><rect width="6" height="6"/></g>
<g transform="translate(280,560) scale(3.4333333333333)"><rect width="6" height="6"/></g>
<g transform="translate(320,560) scale(3.4333333333333)"><rect width="6" height="6"/></g>
<g transform="translate(340,560) scale(3.4333333333333)"><rect width="6" height="6"/></g>
<g transform="translate(480,560) scale(3.4333333333333)"><rect width="6" height="6"/></g>
<g transform="translate(500,560) scale(3.4333333333333)"><rect width="6" height="6"/></g>
<g transform="translate(520,560) scale(3.4333333333333)"><rect width="6" height="6"/></g>
<g transform="translate(600,560) scale(3.4333333333333)"><rect width="6" height="6"/></g>
<g transform="translate(620,560) scale(3.4333333333333)"><rect width="6" height="6"/></g>
<g transform="translate(680,560) scale(3.4333333333333)"><rect width="6" height="6"/></g>
<g transform="translate(720,560) scale(3.4333333333333)"><rect width="6" height="6"/></g>
<g transform="translate(740,560) scale(3.4333333333333)"><rect width="6" height="6"/></g>
<g transform="translate(760,560) scale(3.4333333333333)"><rect width="6" height="6"/></g>
<g transform="translate(780,560) scale(3.4333333333333)"><rect width="6" height="6"/></g>
<g transform="translate(840,560) scale(3.4333333333333)"><rect width="6" height="6"/></g>
<g transform="translate(860,560) scale(3.4333333333333)"><rect width="6" height="6"/></g>
<g transform="translate(880,560) scale(3.4333333333333)"><rect width="6" height="6"/></g>
<g transform="translate(900,560) scale(3.4333333333333)"><rect width="6" height="6"/></g>
<g transform="translate(40,580) scale(3.4333333333333)"><rect width="6" height="6"/></g>
<g transform="translate(100,580) scale(3.4333333333333)"><rect width="6" height="6"/></g>
<g transform="translate(140,580) scale(3.4333333333333)"><rect width="6" height="6"/></g>
<g transform="translate(240,580) scale(3.4333333333333)"><rect width="6" height="6"/></g>
<g transform="translate(300,580) scale(3.4333333333333)"><rect width="6" height="6"/></g>
<g transform="translate(320,580) scale(3.4333333333333)"><rect width="6" height="6"/></g>
<g transform="translate(340,580) scale(3.4333333333333)"><rect width="6" height="6"/></g>
<g transform="translate(360,580) scale(3.4333333333333)"><rect width="6" height="6"/></g>
<g transform="translate(420,580) scale(3.4333333333333)"><rect width="6" height="6"/></g>
<g transform="translate(480,580) scale(3.4333333333333)"><rect width="6" height="6"/></g>
<g transform="translate(540,580) scale(3.4333333333333)"><rect width="6" height="6"/></g>
<g transform="translate(620,580) scale(3.4333333333333)"><rect width="6" height="6"/></g>
<g transform="translate(640,580) scale(3.4333333333333)"><rect width="6" height="6"/></g>
<g transform="translate(680,580) scale(3.4333333333333)"><rect width="6" height="6"/></g>
<g transform="translate(720,580) scale(3.4333333333333)"><rect width="6" height="6"/></g>
<g transform="translate(740,580) scale(3.4333333333333)"><rect width="6" height="6"/></g>
<g transform="translate(800,580) scale(3.4333333333333)"><rect width="6" height="6"/></g>
<g transform="translate(820,580) scale(3.4333333333333)"><rect width="6" height="6"/></g>
<g transform="translate(880,580) scale(3.4333333333333)"><rect width="6" height="6"/></g>
<g transform="translate(900,580) scale(3.4333333333333)"><rect width="6" height="6"/></g>
<g transform="translate(40,600) scale(3.4333333333333)"><rect width="6" height="6"/></g>
<g transform="translate(120,600) scale(3.4333333333333)"><rect width="6" height="6"/></g>
<g transform="translate(140,600) scale(3.4333333333333)"><rect width="6" height="6"/></g>
<g transform="translate(160,600) scale(3.4333333333333)"><rect width="6" height="6"/></g>
<g transform="translate(180,600) scale(3.4333333333333)"><rect width="6" height="6"/></g>
<g transform="translate(200,600) scale(3.4333333333333)"><rect width="6" height="6"/></g>
<g transform="translate(220,600) scale(3.4333333333333)"><rect width="6" height="6"/></g>
<g transform="translate(240,600) scale(3.4333333333333)"><rect width="6" height="6"/></g>
<g transform="translate(260,600) scale(3.4333333333333)"><rect width="6" height="6"/></g>
<g transform="translate(300,600) scale(3.4333333333333)"><rect width="6" height="6"/></g>
<g transform="translate(340,600) scale(3.4333333333333)"><rect width="6" height="6"/></g>
<g transform="translate(380,600) scale(3.4333333333333)"><rect width="6" height="6"/></g>
<g transform="translate(400,600) scale(3.4333333333333)"><rect width="6" height="6"/></g>
<g transform="translate(560,600) scale(3.4333333333333)"><rect width="6" height="6"/></g>
<g transform="translate(580,600) scale(3.4333333333333)"><rect width="6" height="6"/></g>
<g transform="translate(600,600) scale(3.4333333333333)"><rect width="6" height="6"/></g>
<g transform="translate(660,600) scale(3.4333333333333)"><rect width="6" height="6"/></g>
<g transform="translate(720,600) scale(3.4333333333333)"><rect width="6" height="6"/></g>
<g transform="translate(840,600) scale(3.4333333333333)"><rect width="6" height="6"/></g>
<g transform="translate(920,600) scale(3.4333333333333)"><rect width="6" height="6"/></g>
<g transform="translate(40,620) scale(3.4333333333333)"><rect width="6" height="6"/></g>
<g transform="translate(60,620) scale(3.4333333333333)"><rect width="6" height="6"/></g>
<g transform="translate(100,620) scale(3.4333333333333)"><rect width="6" height="6"/></g>
<g transform="translate(120,620) scale(3.4333333333333)"><rect width="6" height="6"/></g>
<g transform="translate(140,620) scale(3.4333333333333)"><rect width="6" height="6"/></g>
<g transform="translate(180,620) scale(3.4333333333333)"><rect width="6" height="6"/></g>
<g transform="translate(220,620) scale(3.4333333333333)"><rect width="6" height="6"/></g>
<g transform="translate(260,620) scale(3.4333333333333)"><rect width="6" height="6"/></g>
<g transform="translate(300,620) scale(3.4333333333333)"><rect width="6" height="6"/></g>
<g transform="translate(320,620) scale(3.4333333333333)"><rect width="6" height="6"/></g>
<g transform="translate(360,620) scale(3.4333333333333)"><rect width="6" height="6"/></g>
<g transform="translate(440,620) scale(3.4333333333333)"><rect width="6" height="6"/></g>
<g transform="translate(500,620) scale(3.4333333333333)"><rect width="6" height="6"/></g>
<g transform="translate(540,620) scale(3.4333333333333)"><rect width="6" height="6"/></g>
<g transform="translate(600,620) scale(3.4333333333333)"><rect width="6" height="6"/></g>
<g transform="translate(620,620) scale(3.4333333333333)"><rect width="6" height="6"/></g>
<g transform="translate(640,620) scale(3.4333333333333)"><rect width="6" height="6"/></g>
<g transform="translate(760,620) scale(3.4333333333333)"><rect width="6" height="6"/></g>
<g transform="translate(780,620) scale(3.4333333333333)"><rect width="6" height="6"/></g>
<g transform="translate(800,620) scale(3.4333333333333)"><rect width="6" height="6"/></g>
<g transform="translate(860,620) scale(3.4333333333333)"><rect width="6" height="6"/></g>
<g transform="translate(920,620) scale(3.4333333333333)"><rect width="6" height="6"/></g>
<g transform="translate(40,640) scale(3.4333333333333)"><rect width="6" height="6"/></g>
<g transform="translate(80,640) scale(3.4333333333333)"><rect width="6" height="6"/></g>
<g transform="translate(100,640) scale(3.4333333333333)"><rect width="6" height="6"/></g>
<g transform="translate(120,640) scale(3.4333333333333)"><rect width="6" height="6"/></g>
<g transform="translate(160,640) scale(3.4333333333333)"><rect width="6" height="6"/></g>
<g transform="translate(180,640) scale(3.4333333333333)"><rect width="6" height="6"/></g>
<g transform="translate(220,640) scale(3.4333333333333)"><rect width="6" height="6"/></g>
<g transform="translate(240,640) scale(3.4333333333333)"><rect width="6" height="6"/></g>
<g transform="translate(260,640) scale(3.4333333333333)"><rect width="6" height="6"/></g>
<g transform="translate(280,640) scale(3.4333333333333)"><rect width="6" height="6"/></g>
<g transform="translate(380,640) scale(3.4333333333333)"><rect width="6" height="6"/></g>
<g transform="translate(400,640) scale(3.4333333333333)"><rect width="6" height="6"/></g>
<g transform="translate(440,640) scale(3.4333333333333)"><rect width="6" height="6"/></g>
<g transform="translate(480,640) scale(3.4333333333333)"><rect width="6" height="6"/></g>
<g transform="translate(500,640) scale(3.4333333333333)"><rect width="6" height="6"/></g>
<g transform="translate(520,640) scale(3.4333333333333)"><rect width="6" height="6"/></g>
<g transform="translate(620,640) scale(3.4333333333333)"><rect width="6" height="6"/></g>
<g transform="translate(640,640) scale(3.4333333333333)"><rect width="6" height="6"/></g>
<g transform="translate(660,640) scale(3.4333333333333)"><rect width="6" height="6"/></g>
<g transform="translate(680,640) scale(3.4333333333333)"><rect width="6" height="6"/></g>
<g transform="translate(700,640) scale(3.4333333333333)"><rect width="6" height="6"/></g>
<g transform="translate(720,640) scale(3.4333333333333)"><rect width="6" height="6"/></g>
<g transform="translate(740,640) scale(3.4333333333333)"><rect width="6" height="6"/></g>
<g transform="translate(780,640) scale(3.4333333333333)"><rect width="6" height="6"/></g>
<g transform="translate(820,640) scale(3.4333333333333)"><rect width="6" height="6"/></g>
<g transform="translate(900,640) scale(3.4333333333333)"><rect width="6" height="6"/></g>
<g transform="translate(60,660) scale(3.4333333333333)"><rect width="6" height="6"/></g>
<g transform="translate(120,660) scale(3.4333333333333)"><rect width="6" height="6"/></g>
<g transform="translate(140,660) scale(3.4333333333333)"><rect width="6" height="6"/></g>
<g transform="translate(220,660) scale(3.4333333333333)"><rect width="6" height="6"/></g>
<g transform="translate(240,660) scale(3.4333333333333)"><rect width="6" height="6"/></g>
<g transform="translate(280,660) scale(3.4333333333333)"><rect width="6" height="6"/></g>
<g transform="translate(300,660) scale(3.4333333333333)"><rect width="6" height="6"/></g>
<g transform="translate(360,660) scale(3.4333333333333)"><rect width="6" height="6"/></g>
<g transform="translate(380,660) scale(3.4333333333333)"><rect width="6" height="6"/></g>
<g transform="translate(400,660) scale(3.4333333333333)"><rect width="6" height="6"/></g>
<g transform="translate(440,660) scale(3.4333333333333)"><rect width="6" height="6"/></g>
<g transform="translate(500,660) scale(3.4333333333333)"><rect width="6" height="6"/></g>
<g transform="translate(540,660) scale(3.4333333333333)"><rect width="6" height="6"/></g>
<g transform="translate(560,660) scale(3.4333333333333)"><rect width="6" height="6"/></g>
<g transform="translate(580,660) scale(3.4333333333333)"><rect width="6" height="6"/></g>
<g transform="translate(600,660) scale(3.4333333333333)"><rect width="6" height="6"/></g>
<g transform="translate(640,660) scale(3.4333333333333)"><rect width="6" height="6"/></g>
<g transform="translate(680,660) scale(3.4333333333333)"><rect width="6" height="6"/></g>
<g transform="translate(700,660) scale(3.4333333333333)"><rect width="6" height="6"/></g>
<g transform="translate(720,660) scale(3.4333333333333)"><rect width="6" height="6"/></g>
<g transform="translate(740,660) scale(3.4333333333333)"><rect width="6" height="6"/></g>
<g transform="translate(800,660) scale(3.4333333333333)"><rect width="6" height="6"/></g>
<g transform="translate(880,660) scale(3.4333333333333)"><rect width="6" height="6"/></g>
<g transform="translate(920,660) scale(3.4333333333333)"><rect width="6" height="6"/></g>
<g transform="translate(60,680) scale(3.4333333333333)"><rect width="6" height="6"/></g>
<g transform="translate(80,680) scale(3.4333333333333)"><rect width="6" height="6"/></g>
<g transform="translate(100,680) scale(3.4333333333333)"><rect width="6" height="6"/></g>
<g transform="translate(140,680) scale(3.4333333333333)"><rect width="6" height="6"/></g>
<g transform="translate(160,680) scale(3.4333333333333)"><rect width="6" height="6"/></g>
<g transform="translate(240,680) scale(3.4333333333333)"><rect width="6" height="6"/></g>
<g transform="translate(260,680) scale(3.4333333333333)"><rect width="6" height="6"/></g>
<g transform="translate(300,680) scale(3.4333333333333)"><rect width="6" height="6"/></g>
<g transform="translate(320,680) scale(3.4333333333333)"><rect width="6" height="6"/></g>
<g transform="translate(400,680) scale(3.4333333333333)"><rect width="6" height="6"/></g>
<g transform="translate(440,680) scale(3.4333333333333)"><rect width="6" height="6"/></g>
<g transform="translate(460,680) scale(3.4333333333333)"><rect width="6" height="6"/></g>
<g transform="translate(480,680) scale(3.4333333333333)"><rect width="6" height="6"/></g>
<g transform="translate(520,680) scale(3.4333333333333)"><rect width="6" height="6"/></g>
<g transform="translate(540,680) scale(3.4333333333333)"><rect width="6" height="6"/></g>
<g transform="translate(560,680) scale(3.4333333333333)"><rect width="6" height="6"/></g>
<g transform="translate(580,680) scale(3.4333333333333)"><rect width="6" height="6"/></g>
<g transform="translate(620,680) scale(3.4333333333333)"><rect width="6" height="6"/></g>
<g transform="translate(640,680) scale(3.4333333333333)"><rect width="6" height="6"/></g>
<g transform="translate(660,680) scale(3.4333333333333)"><rect width="6" height="6"/></g>
<g transform="translate(820,680) scale(3.4333333333333)"><rect width="6" height="6"/></g>
<g transform="translate(840,680) scale(3.4333333333333)"><rect width="6" height="6"/></g>
<g transform="translate(900,680) scale(3.4333333333333)"><rect width="6" height="6"/></g>
<g transform="translate(920,680) scale(3.4333333333333)"><rect width="6" height="6"/></g>
<g transform="translate(40,700) scale(3.4333333333333)"><rect width="6" height="6"/></g>
<g transform="translate(80,700) scale(3.4333333333333)"><rect width="6" height="6"/></g>
<g transform="translate(140,700) scale(3.4333333333333)"><rect width="6" height="6"/></g>
<g transform="translate(180,700) scale(3.4333333333333)"><rect width="6" height="6"/></g>
<g transform="translate(240,700) scale(3.4333333333333)"><rect width="6" height="6"/></g>
<g transform="translate(280,700) scale(3.4333333333333)"><rect width="6" height="6"/></g>
<g transform="translate(300,700) scale(3.4333333333333)"><rect width="6" height="6"/></g>
<g transform="translate(360,700) scale(3.4333333333333)"><rect width="6" height="6"/></g>
<g transform="translate(420,700) scale(3.4333333333333)"><rect width="6" height="6"/></g>
<g transform="translate(440,700) scale(3.4333333333333)"><rect width="6" height="6"/></g>
<g transform="translate(480,700) scale(3.4333333333333)"><rect width="6" height="6"/></g>
<g transform="translate(500,700) scale(3.4333333333333)"><rect width="6" height="6"/></g>
<g transform="translate(520,700) scale(3.4333333333333)"><rect width="6" height="6"/></g>
<g transform="translate(540,700) scale(3.4333333333333)"><rect width="6" height="6"/></g>
<g transform="translate(600,700) scale(3.4333333333333)"><rect width="6" height="6"/></g>
<g transform="translate(640,700) scale(3.4333333333333)"><rect width="6" height="6"/></g>
<g transform="translate(660,700) scale(3.4333333333333)"><rect width="6" height="6"/></g>
<g transform="translate(740,700) scale(3.4333333333333)"><rect width="6" height="6"/></g>
<g transform="translate(760,700) scale(3.4333333333333)"><rect width="6" height="6"/></g>
<g transform="translate(800,700) scale(3.4333333333333)"><rect width="6" height="6"/></g>
<g transform="translate(860,700) scale(3.4333333333333)"><rect width="6" height="6"/></g>
<g transform="translate(880,700) scale(3.4333333333333)"><rect width="6" height="6"/></g>
<g transform="translate(920,700) scale(3.4333333333333)"><rect width="6" height="6"/></g>
<g transform="translate(120,720) scale(3.4333333333333)"><rect width="6" height="6"/></g>
<g transform="translate(160,720) scale(3.4333333333333)"><rect width="6" height="6"/></g>
<g transform="translate(180,720) scale(3.4333333333333)"><rect width="6" height="6"/></g>
<g transform="translate(220,720) scale(3.4333333333333)"><rect width="6" height="6"/></g>
<g transform="translate(260,720) scale(3.4333333333333)"><rect width="6" height="6"/></g>
<g transform="translate(300,720) scale(3.4333333333333)"><rect width="6" height="6"/></g>
<g transform="translate(320,720) scale(3.4333333333333)"><rect width="6" height="6"/></g>
<g transform="translate(360,720) scale(3.4333333333333)"><rect width="6" height="6"/></g>
<g transform="translate(420,720) scale(3.4333333333333)"><rect width="6" height="6"/></g>
<g transform="translate(440,720) scale(3.4333333333333)"><rect width="6" height="6"/></g>
<g transform="translate(460,720) scale(3.4333333333333)"><rect width="6" height="6"/></g>
<g transform="translate(500,720) scale(3.4333333333333)"><rect width="6" height="6"/></g>
<g transform="translate(540,720) scale(3.4333333333333)"><rect width="6" height="6"/></g>
<g transform="translate(580,720) scale(3.4333333333333)"><rect width="6" height="6"/></g>
<g transform="translate(620,720) scale(3.4333333333333)"><rect width="6" height="6"/></g>
<g transform="translate(680,720) scale(3.4333333333333)"><rect width="6" height="6"/></g>
<g transform="translate(700,720) scale(3.4333333333333)"><rect width="6" height="6"/></g>
<g transform="translate(720,720) scale(3.4333333333333)"><rect width="6" height="6"/></g>
<g transform="translate(760,720) scale(3.4333333333333)"><rect width="6" height="6"/></g>
<g transform="translate(780,720) scale(3.4333333333333)"><rect width="6" height="6"/></g>
<g transform="translate(880,720) scale(3.4333333333333)"><rect width="6" height="6"/></g>
<g transform="translate(900,720) scale(3.4333333333333)"><rect width="6" height="6"/></g>
<g transform="translate(60,740) scale(3.4333333333333)"><rect width="6" height="6"/></g>
<g transform="translate(80,740) scale(3.4333333333333)"><rect width="6" height="6"/></g>
<g transform="translate(100,740) scale(3.4333333333333)"><rect width="6" height="6"/></g>
<g transform="translate(120,740) scale(3.4333333333333)"><rect width="6" height="6"/></g>
<g transform="translate(200,740) scale(3.4333333333333)"><rect width="6" height="6"/></g>
<g transform="translate(220,740) scale(3.4333333333333)"><rect width="6" height="6"/></g>
<g transform="translate(240,740) scale(3.4333333333333)"><rect width="6" height="6"/></g>
<g transform="translate(280,740) scale(3.4333333333333)"><rect width="6" height="6"/></g>
<g transform="translate(320,740) scale(3.4333333333333)"><rect width="6" height="6"/></g>
<g transform="translate(460,740) scale(3.4333333333333)"><rect width="6" height="6"/></g>
<g transform="translate(480,740) scale(3.4333333333333)"><rect width="6" height="6"/></g>
<g transform="translate(540,740) scale(3.4333333333333)"><rect width="6" height="6"/></g>
<g transform="translate(560,740) scale(3.4333333333333)"><rect width="6" height="6"/></g>
<g transform="translate(600,740) scale(3.4333333333333)"><rect width="6" height="6"/></g>
<g transform="translate(620,740) scale(3.4333333333333)"><rect width="6" height="6"/></g>
<g transform="translate(640,740) scale(3.4333333333333)"><rect width="6" height="6"/></g>
<g transform="translate(680,740) scale(3.4333333333333)"><rect width="6" height="6"/></g>
<g transform="translate(740,740) scale(3.4333333333333)"><rect width="6" height="6"/></g>
<g transform="translate(760,740) scale(3.4333333333333)"><rect width="6" height="6"/></g>
<g transform="translate(800,740) scale(3.4333333333333)"><rect width="6" height="6"/></g>
<g transform="translate(840,740) scale(3.4333333333333)"><rect width="6" height="6"/></g>
<g transform="translate(860,740) scale(3.4333333333333)"><rect width="6" height="6"/></g>
<g transform="translate(880,740) scale(3.4333333333333)"><rect width="6" height="6"/></g>
<g transform="translate(40,760) scale(3.4333333333333)"><rect width="6" height="6"/></g>
<g transform="translate(100,760) scale(3.4333333333333)"><rect width="6" height="6"/></g>
<g transform="translate(120,760) scale(3.4333333333333)"><rect width="6" height="6"/></g>
<g transform="translate(160,760) scale(3.4333333333333)"><rect width="6" height="6"/></g>
<g transform="translate(200,760) scale(3.4333333333333)"><rect width="6" height="6"/></g>
<g transform="translate(240,760) scale(3.4333333333333)"><rect width="6" height="6"/></g>
<g transform="translate(260,760) scale(3.4333333333333)"><rect width="6" height="6"/></g>
<g transform="translate(320,760) scale(3.4333333333333)"><rect width="6" height="6"/></g>
<g transform="translate(360,760) scale(3.4333333333333)"><rect width="6" height="6"/></g>
<g transform="translate(440,760) scale(3.4333333333333)"><rect width="6" height="6"/></g>
<g transform="translate(460,760) scale(3.4333333333333)"><rect width="6" height="6"/></g>
<g transform="translate(480,760) scale(3.4333333333333)"><rect width="6" height="6"/></g>
<g transform="translate(500,760) scale(3.4333333333333)"><rect width="6" height="6"/></g>
<g transform="translate(520,760) scale(3.4333333333333)"><rect width="6" height="6"/></g>
<g transform="translate(560,760) scale(3.4333333333333)"><rect width="6" height="6"/></g>
<g transform="translate(580,760) scale(3.4333333333333)"><rect width="6" height="6"/></g>
<g transform="translate(600,760) scale(3.4333333333333)"><rect width="6" height="6"/></g>
<g transform="translate(620,760) scale(3.4333333333333)"><rect width="6" height="6"/></g>
<g transform="translate(640,760) scale(3.4333333333333)"><rect width="6" height="6"/></g>
<g transform="translate(660,760) scale(3.4333333333333)"><rect width="6" height="6"/></g>
<g transform="translate(700,760) scale(3.4333333333333)"><rect width="6" height="6"/></g>
<g transform="translate(720,760) scale(3.4333333333333)"><rect width="6" height="6"/></g>
<g transform="translate(760,760) scale(3.4333333333333)"><rect width="6" height="6"/></g>
<g transform="translate(780,760) scale(3.4333333333333)"><rect width="6" height="6"/></g>
<g transform="translate(800,760) scale(3.4333333333333)"><rect width="6" height="6"/></g>
<g transform="translate(820,760) scale(3.4333333333333)"><rect width="6" height="6"/></g>
<g transform="translate(840,760) scale(3.4333333333333)"><rect width="6" height="6"/></g>
<g transform="translate(860,760) scale(3.4333333333333)"><rect width="6" height="6"/></g>
<g transform="translate(900,760) scale(3.4333333333333)"><rect width="6" height="6"/></g>
<g transform="translate(920,760) scale(3.4333333333333)"><rect width="6" height="6"/></g>
<g transform="translate(200,780) scale(3.4333333333333)"><rect width="6" height="6"/></g>
<g transform="translate(220,780) scale(3.4333333333333)"><rect width="6" height="6"/></g>
<g transform="translate(260,780) scale(3.4333333333333)"><rect width="6" height="6"/></g>
<g transform="translate(280,780) scale(3.4333333333333)"><rect width="6" height="6"/></g>
<g transform="translate(320,780) scale(3.4333333333333)"><rect width="6" height="6"/></g>
<g transform="translate(340,780) scale(3.4333333333333)"><rect width="6" height="6"/></g>
<g transform="translate(360,780) scale(3.4333333333333)"><rect width="6" height="6"/></g>
<g transform="translate(380,780) scale(3.4333333333333)"><rect width="6" height="6"/></g>
<g transform="translate(400,780) scale(3.4333333333333)"><rect width="6" height="6"/></g>
<g transform="translate(440,780) scale(3.4333333333333)"><rect width="6" height="6"/></g>
<g transform="translate(520,780) scale(3.4333333333333)"><rect width="6" height="6"/></g>
<g transform="translate(540,780) scale(3.4333333333333)"><rect width="6" height="6"/></g>
<g transform="translate(620,780) scale(3.4333333333333)"><rect width="6" height="6"/></g>
<g transform="translate(660,780) scale(3.4333333333333)"><rect width="6" height="6"/></g>
<g transform="translate(680,780) scale(3.4333333333333)"><rect width="6" height="6"/></g>
<g transform="translate(760,780) scale(3.4333333333333)"><rect width="6" height="6"/></g>
<g transform="translate(840,780) scale(3.4333333333333)"><rect width="6" height="6"/></g>
<g transform="translate(860,780) scale(3.4333333333333)"><rect width="6" height="6"/></g>
<g transform="translate(900,780) scale(3.4333333333333)"><rect width="6" height="6"/></g>
<g transform="translate(920,780) scale(3.4333333333333)"><rect width="6" height="6"/></g>
<g transform="translate(260,800) scale(3.4333333333333)"><rect width="6" height="6"/></g>
<g transform="translate(340,800) scale(3.4333333333333)"><rect width="6" height="6"/></g>
<g transform="translate(360,800) scale(3.4333333333333)"><rect width="6" height="6"/></g>
<g transform="translate(420,800) scale(3.4333333333333)"><rect width="6" height="6"/></g>
<g transform="translate(440,800) scale(3.4333333333333)"><rect width="6" height="6"/></g>
<g transform="translate(480,800) scale(3.4333333333333)"><rect width="6" height="6"/></g>
<g transform="translate(520,800) scale(3.4333333333333)"><rect width="6" height="6"/></g>
<g transform="translate(580,800) scale(3.4333333333333)"><rect width="6" height="6"/></g>
<g transform="translate(620,800) scale(3.4333333333333)"><rect width="6" height="6"/></g>
<g transform="translate(640,800) scale(3.4333333333333)"><rect width="6" height="6"/></g>
<g transform="translate(700,800) scale(3.4333333333333)"><rect width="6" height="6"/></g>
<g transform="translate(720,800) scale(3.4333333333333)"><rect width="6" height="6"/></g>
<g transform="translate(760,800) scale(3.4333333333333)"><rect width="6" height="6"/></g>
<g transform="translate(800,800) scale(3.4333333333333)"><rect width="6" height="6"/></g>
<g transform="translate(840,800) scale(3.4333333333333)"><rect width="6" height="6"/></g>
<g transform="translate(900,800) scale(3.4333333333333)"><rect width="6" height="6"/></g>
<g transform="translate(220,820) scale(3.4333333333333)"><rect width="6" height="6"/></g>
<g transform="translate(240,820) scale(3.4333333333333)"><rect width="6" height="6"/></g>
<g transform="translate(280,820) scale(3.4333333333333)"><rect width="6" height="6"/></g>
<g transform="translate(300,820) scale(3.4333333333333)"><rect width="6" height="6"/></g>
<g transform="translate(320,820) scale(3.4333333333333)"><rect width="6" height="6"/></g>
<g transform="translate(340,820) scale(3.4333333333333)"><rect width="6" height="6"/></g>
<g transform="translate(400,820) scale(3.4333333333333)"><rect width="6" height="6"/></g>
<g transform="translate(420,820) scale(3.4333333333333)"><rect width="6" height="6"/></g>
<g transform="translate(440,820) scale(3.4333333333333)"><rect width="6" height="6"/></g>
<g transform="translate(520,820) scale(3.4333333333333)"><rect width="6" height="6"/></g>
<g transform="translate(580,820) scale(3.4333333333333)"><rect width="6" height="6"/></g>
<g transform="translate(640,820) scale(3.4333333333333)"><rect width="6" height="6"/></g>
<g transform="translate(680,820) scale(3.4333333333333)"><rect width="6" height="6"/></g>
<g transform="translate(740,820) scale(3.4333333333333)"><rect width="6" height="6"/></g>
<g transform="translate(760,820) scale(3.4333333333333)"><rect width="6" height="6"/></g>
<g transform="translate(840,820) scale(3.4333333333333)"><rect width="6" height="6"/></g>
<g transform="translate(860,820) scale(3.4333333333333)"><rect width="6" height="6"/></g>
<g transform="translate(880,820) scale(3.4333333333333)"><rect width="6" height="6"/></g>
<g transform="translate(200,840) scale(3.4333333333333)"><rect width="6" height="6"/></g>
<g transform="translate(240,840) scale(3.4333333333333)"><rect width="6" height="6"/></g>
<g transform="translate(260,840) scale(3.4333333333333)"><rect width="6" height="6"/></g>
<g transform="translate(300,840) scale(3.4333333333333)"><rect width="6" height="6"/></g>
<g transform="translate(340,840) scale(3.4333333333333)"><rect width="6" height="6"/></g>
<g transform="translate(400,840) scale(3.4333333333333)"><rect width="6" height="6"/></g>
<g transform="translate(440,840) scale(3.4333333333333)"><rect width="6" height="6"/></g>
<g transform="translate(460,840) scale(3.4333333333333)"><rect width="6" height="6"/></g>
<g transform="translate(480,840) scale(3.4333333333333)"><rect width="6" height="6"/></g>
<g transform="translate(500,840) scale(3.4333333333333)"><rect width="6" height="6"/></g>
<g transform="translate(520,840) scale(3.4333333333333)"><rect width="6" height="6"/></g>
<g transform="translate(540,840) scale(3.4333333333333)"><rect width="6" height="6"/></g>
<g transform="translate(580,840) scale(3.4333333333333)"><rect width="6" height="6"/></g>
<g transform="translate(620,840) scale(3.4333333333333)"><rect width="6" height="6"/></g>
<g transform="translate(640,840) scale(3.4333333333333)"><rect width="6" height="6"/></g>
<g transform="translate(660,840) scale(3.4333333333333)"><rect width="6" height="6"/></g>
<g transform="translate(740,840) scale(3.4333333333333)"><rect width="6" height="6"/></g>
<g transform="translate(760,840) scale(3.4333333333333)"><rect width="6" height="6"/></g>
<g transform="translate(780,840) scale(3.4333333333333)"><rect width="6" height="6"/></g>
<g transform="translate(800,840) scale(3.4333333333333)"><rect width="6" height="6"/></g>
<g transform="translate(820,840) scale(3.4333333333333)"><rect width="6" height="6"/></g>
<g transform="translate(840,840) scale(3.4333333333333)"><rect width="6" height="6"/></g>
<g transform="translate(920,840) scale(3.4333333333333)"><rect width="6" height="6"/></g>
<g transform="translate(200,860) scale(3.4333333333333)"><rect width="6" height="6"/></g>
<g transform="translate(220,860) scale(3.4333333333333)"><rect width="6" height="6"/></g>
<g transform="translate(240,860) scale(3.4333333333333)"><rect width="6" height="6"/></g>
<g transform="translate(280,860) scale(3.4333333333333)"><rect width="6" height="6"/></g>
<g transform="translate(320,860) scale(3.4333333333333)"><rect width="6" height="6"/></g>
<g transform="translate(360,860) scale(3.4333333333333)"><rect width="6" height="6"/></g>
<g transform="translate(380,860) scale(3.4333333333333)"><rect width="6" height="6"/></g>
<g transform="translate(420,860) scale(3.4333333333333)"><rect width="6" height="6"/></g>
<g transform="translate(440,860) scale(3.4333333333333)"><rect width="6" height="6"/></g>
<g transform="translate(500,860) scale(3.4333333333333)"><rect width="6" height="6"/></g>
<g transform="translate(620,860) scale(3.4333333333333)"><rect width="6" height="6"/></g>
<g transform="translate(660,860) scale(3.4333333333333)"><rect width="6" height="6"/></g>
<g transform="translate(680,860) scale(3.4333333333333)"><rect width="6" height="6"/></g>
<g transform="translate(820,860) scale(3.4333333333333)"><rect width="6" height="6"/></g>
<g transform="translate(840,860) scale(3.4333333333333)"><rect width="6" height="6"/></g>
<g transform="translate(860,860) scale(3.4333333333333)"><rect width="6" height="6"/></g>
<g transform="translate(880,860) scale(3.4333333333333)"><rect width="6" height="6"/></g>
<g transform="translate(900,860) scale(3.4333333333333)"><rect width="6" height="6"/></g>
<g transform="translate(920,860) scale(3.4333333333333)"><rect width="6" height="6"/></g>
<g transform="translate(200,880) scale(3.4333333333333)"><rect width="6" height="6"/></g>
<g transform="translate(220,880) scale(3.4333333333333)"><rect width="6" height="6"/></g>
<g transform="translate(240,880) scale(3.4333333333333)"><rect width="6" height="6"/></g>
<g transform="translate(260,880) scale(3.4333333333333)"><rect width="6" height="6"/></g>
<g transform="translate(300,880) scale(3.4333333333333)"><rect width="6" height="6"/></g>
<g transform="translate(320,880) scale(3.4333333333333)"><rect width="6" height="6"/></g>
<g transform="translate(380,880) scale(3.4333333333333)"><rect width="6" height="6"/></g>
<g transform="translate(420,880) scale(3.4333333333333)"><rect width="6" height="6"/></g>
<g transform="translate(440,880) scale(3.4333333333333)"><rect width="6" height="6"/></g>
<g transform="translate(500,880) scale(3.4333333333333)"><rect width="6" height="6"/></g>
<g transform="translate(560,880) scale(3.4333333333333)"><rect width="6" height="6"/></g>
<g transform="translate(580,880) scale(3.4333333333333)"><rect width="6" height="6"/></g>
<g transform="translate(600,880) scale(3.4333333333333)"><rect width="6" height="6"/></g>
<g transform="translate(620,880) scale(3.4333333333333)"><rect width="6" height="6"/></g>
<g transform="translate(640,880) scale(3.4333333333333)"><rect width="6" height="6"/></g>
<g transform="translate(660,880) scale(3.4333333333333)"><rect width="6" height="6"/></g>
<g transform="translate(700,880) scale(3.4333333333333)"><rect width="6" height="6"/></g>
<g transform="translate(720,880) scale(3.4333333333333)"><rect width="6" height="6"/></g>
<g transform="translate(760,880) scale(3.4333333333333)"><rect width="6" height="6"/></g>
<g transform="translate(780,880) scale(3.4333333333333)"><rect width="6" height="6"/></g>
<g transform="translate(800,880) scale(3.4333333333333)"><rect width="6" height="6"/></g>
<g transform="translate(220,900) scale(3.4333333333333)"><rect width="6" height="6"/></g>
<g transform="translate(240,900) scale(3.4333333333333)"><rect width="6" height="6"/></g>
<g transform="translate(280,900) scale(3.4333333333333)"><rect width="6" height="6"/></g>
<g transform="translate(320,900) scale(3.4333333333333)"><rect width="6" height="6"/></g>
<g transform="translate(360,900) scale(3.4333333333333)"><rect width="6" height="6"/></g>
<g transform="translate(400,900) scale(3.4333333333333)"><rect width="6" height="6"/></g>
<g transform="translate(420,900) scale(3.4333333333333)"><rect width="6" height="6"/></g>
<g transform="translate(440,900) scale(3.4333333333333)"><rect width="6" height="6"/></g>
<g transform="translate(460,900) scale(3.4333333333333)"><rect width="6" height="6"/></g>
<g transform="translate(480,900) scale(3.4333333333333)"><rect width="6" height="6"/></g>
<g transform="translate(500,900) scale(3.4333333333333)"><rect width="6" height="6"/></g>
<g transform="translate(540,900) scale(3.4333333333333)"><rect width="6" height="6"/></g>
<g transform="translate(600,900) scale(3.4333333333333)"><rect width="6" height="6"/></g>
<g transform="translate(640,900) scale(3.4333333333333)"><rect width="6" height="6"/></g>
<g transform="translate(660,900) scale(3.4333333333333)"><rect width="6" height="6"/></g>
<g transform="translate(680,900) scale(3.4333333333333)"><rect width="6" height="6"/></g>
<g transform="translate(740,900) scale(3.4333333333333)"><rect width="6" height="6"/></g>
<g transform="translate(760,900) scale(3.4333333333333)"><rect width="6" height="6"/></g>
<g transform="translate(860,900) scale(3.4333333333333)"><rect width="6" height="6"/></g>
<g transform="translate(880,900) scale(3.4333333333333)"><rect width="6" height="6"/></g>
<g transform="translate(280,920) scale(3.4333333333333)"><rect width="6" height="6"/></g>
<g transform="translate(320,920) scale(3.4333333333333)"><rect width="6" height="6"/></g>
<g transform="translate(340,920) scale(3.4333333333333)"><rect width="6" height="6"/></g>
<g transform="translate(380,920) scale(3.4333333333333)"><rect width="6" height="6"/></g>
<g transform="translate(440,920) scale(3.4333333333333)"><rect width="6" height="6"/></g>
<g transform="translate(460,920) scale(3.4333333333333)"><rect width="6" height="6"/></g>
<g transform="translate(580,920) scale(3.4333333333333)"><rect width="6" height="6"/></g>
<g transform="translate(600,920) scale(3.4333333333333)"><rect width="6" height="6"/></g>
<g transform="translate(660,920) scale(3.4333333333333)"><rect width="6" height="6"/></g>
<g transform="translate(700,920) scale(3.4333333333333)"><rect width="6" height="6"/></g>
<g transform="translate(740,920) scale(3.4333333333333)"><rect width="6" height="6"/></g>
<g transform="translate(780,920) scale(3.4333333333333)"><rect width="6" height="6"/></g>
<g transform="translate(800,920) scale(3.4333333333333)"><rect width="6" height="6"/></g>
<g transform="translate(840,920) scale(3.4333333333333)"><rect width="6" height="6"/></g>
<g transform="translate(860,920) scale(3.4333333333333)"><rect width="6" height="6"/></g>
<g transform="translate(900,920) scale(3.4333333333333)"><rect width="6" height="6"/></g>
</g></g></mask></defs>
<rect width="980" height="980" fill="#ffffff" x="0" y="0" />
<rect x="0" y="0" width="980" height="980" mask="url(#qrmask)" fill="#000000" />
<g><g transform="translate(40,40)"  fill="#000000"><g transform="scale(10)"><path d="M0,0v14h14V0H0z M12,12H2V2h10V12z"/></g></g>
<g transform="translate(80,80)"  fill="#000000"><g transform="scale(10)"><rect width="6" height="6"/></g></g>
<g transform="translate(800,40)"  fill="#000000"><g transform="scale(10)"><path d="M0,0v14h14V0H0z M12,12H2V2h10V12z"/></g></g>
<g transform="translate(840,80)"  fill="#000000"><g transform="scale(10)"><rect width="6" height="6"/></g></g>
<g transform="translate(40,800)"  fill="#000000"><g transform="scale(10)"><path d="M0,0v14h14V0H0z M12,12H2V2h10V12z"/></g></g>
<g transform="translate(80,840)"  fill="#000000"><g transform="scale(10)"><rect width="6" height="6"/></g></g></g>
</svg>